<mxfile host="app.diagrams.net" modified="2023-07-30T04:57:49.098Z" agent="Mozilla/5.0 (Windows NT 10.0; Win64; x64) AppleWebKit/537.36 (KHTML, like Gecko) Chrome/115.0.0.0 Safari/537.36" etag="4WJ8doKxUjZzdYOEtltq" version="21.6.6" type="device">
  <diagram id="Gi5_93j05Tq5kSE1P_lF" name="Page-2">
    <mxGraphModel dx="1434" dy="782" grid="1" gridSize="10" guides="1" tooltips="1" connect="1" arrows="1" fold="1" page="1" pageScale="1" pageWidth="850" pageHeight="1100" math="0" shadow="0">
      <root>
        <mxCell id="0" />
        <mxCell id="1" parent="0" />
        <mxCell id="S5m8VR_HZ--lrlstfprA-1" value="Usuario" style="swimlane;whiteSpace=wrap;html=1;startSize=23;" parent="1" vertex="1">
          <mxGeometry x="960" y="120" width="195" height="490" as="geometry" />
        </mxCell>
        <mxCell id="bIC6PZaSWGzknsKboqKd-2" value="" style="edgeStyle=orthogonalEdgeStyle;rounded=0;orthogonalLoop=1;jettySize=auto;html=1;" parent="S5m8VR_HZ--lrlstfprA-1" source="18j1XGoCvIrTiXG_NGVG-85" target="bIC6PZaSWGzknsKboqKd-1" edge="1">
          <mxGeometry relative="1" as="geometry" />
        </mxCell>
        <mxCell id="18j1XGoCvIrTiXG_NGVG-85" value="" style="ellipse;whiteSpace=wrap;html=1;aspect=fixed;fillColor=#000000;" parent="S5m8VR_HZ--lrlstfprA-1" vertex="1">
          <mxGeometry x="87.5" y="50" width="20" height="20" as="geometry" />
        </mxCell>
        <mxCell id="bIC6PZaSWGzknsKboqKd-1" value="Incrementar&lt;br&gt;o disminuir" style="rhombus;whiteSpace=wrap;html=1;" parent="S5m8VR_HZ--lrlstfprA-1" vertex="1">
          <mxGeometry x="57.5" y="100" width="80" height="80" as="geometry" />
        </mxCell>
        <mxCell id="ePJA7sKkPswgZLmJT1RE-1" value="Control Remoto" style="swimlane;whiteSpace=wrap;html=1;" parent="1" vertex="1">
          <mxGeometry x="1155" y="120" width="200" height="490" as="geometry" />
        </mxCell>
        <mxCell id="7F6fqmXWAmK54oai2_qa-64" value="" style="edgeStyle=orthogonalEdgeStyle;rounded=0;orthogonalLoop=1;jettySize=auto;html=1;" parent="ePJA7sKkPswgZLmJT1RE-1" source="ePJA7sKkPswgZLmJT1RE-2" target="7F6fqmXWAmK54oai2_qa-50" edge="1">
          <mxGeometry relative="1" as="geometry" />
        </mxCell>
        <mxCell id="ePJA7sKkPswgZLmJT1RE-2" value="Detectar Boton disminuir" style="rounded=1;whiteSpace=wrap;html=1;" parent="ePJA7sKkPswgZLmJT1RE-1" vertex="1">
          <mxGeometry x="40" y="290" width="120" height="60" as="geometry" />
        </mxCell>
        <mxCell id="7F6fqmXWAmK54oai2_qa-50" value="Enviar Comando" style="rounded=1;whiteSpace=wrap;html=1;" parent="ePJA7sKkPswgZLmJT1RE-1" vertex="1">
          <mxGeometry x="40" y="380" width="120" height="60" as="geometry" />
        </mxCell>
        <mxCell id="bIC6PZaSWGzknsKboqKd-7" value="" style="edgeStyle=orthogonalEdgeStyle;rounded=0;orthogonalLoop=1;jettySize=auto;html=1;" parent="ePJA7sKkPswgZLmJT1RE-1" source="bIC6PZaSWGzknsKboqKd-3" target="bIC6PZaSWGzknsKboqKd-6" edge="1">
          <mxGeometry relative="1" as="geometry" />
        </mxCell>
        <mxCell id="bIC6PZaSWGzknsKboqKd-3" value="Detectar Boton incrementar" style="rounded=1;whiteSpace=wrap;html=1;" parent="ePJA7sKkPswgZLmJT1RE-1" vertex="1">
          <mxGeometry x="40" y="110" width="120" height="60" as="geometry" />
        </mxCell>
        <mxCell id="bIC6PZaSWGzknsKboqKd-6" value="Enviar Comando" style="rounded=1;whiteSpace=wrap;html=1;" parent="ePJA7sKkPswgZLmJT1RE-1" vertex="1">
          <mxGeometry x="40" y="200" width="120" height="60" as="geometry" />
        </mxCell>
        <mxCell id="7F6fqmXWAmK54oai2_qa-3" value="Control remoto" style="shape=umlLifeline;perimeter=lifelinePerimeter;whiteSpace=wrap;html=1;container=1;collapsible=0;recursiveResize=0;outlineConnect=0;rounded=1;shadow=0;comic=0;labelBackgroundColor=none;strokeWidth=1;fontFamily=Verdana;fontSize=12;align=center;" parent="1" vertex="1">
          <mxGeometry x="240" y="110" width="120" height="700" as="geometry" />
        </mxCell>
        <mxCell id="7F6fqmXWAmK54oai2_qa-4" value="" style="rounded=0;whiteSpace=wrap;html=1;" parent="7F6fqmXWAmK54oai2_qa-3" vertex="1">
          <mxGeometry x="55" y="120" width="10" height="60" as="geometry" />
        </mxCell>
        <mxCell id="7F6fqmXWAmK54oai2_qa-5" value="Unidad lógica" style="shape=umlLifeline;perimeter=lifelinePerimeter;whiteSpace=wrap;html=1;container=1;collapsible=0;recursiveResize=0;outlineConnect=0;rounded=1;shadow=0;comic=0;labelBackgroundColor=none;strokeWidth=1;fontFamily=Verdana;fontSize=12;align=center;" parent="1" vertex="1">
          <mxGeometry x="400" y="110" width="120" height="700" as="geometry" />
        </mxCell>
        <mxCell id="7F6fqmXWAmK54oai2_qa-71" value="" style="rounded=0;whiteSpace=wrap;html=1;" parent="7F6fqmXWAmK54oai2_qa-5" vertex="1">
          <mxGeometry x="55" y="370" width="10" height="110" as="geometry" />
        </mxCell>
        <mxCell id="7F6fqmXWAmK54oai2_qa-6" value="" style="rounded=0;whiteSpace=wrap;html=1;" parent="7F6fqmXWAmK54oai2_qa-5" vertex="1">
          <mxGeometry x="55" y="180" width="10" height="170" as="geometry" />
        </mxCell>
        <mxCell id="7F6fqmXWAmK54oai2_qa-7" value="" style="endArrow=classic;html=1;rounded=0;exitX=1.03;exitY=0.151;exitDx=0;exitDy=0;edgeStyle=orthogonalEdgeStyle;curved=1;entryX=1;entryY=0;entryDx=0;entryDy=0;exitPerimeter=0;" parent="7F6fqmXWAmK54oai2_qa-5" target="7F6fqmXWAmK54oai2_qa-9" edge="1">
          <mxGeometry width="50" height="50" relative="1" as="geometry">
            <mxPoint x="65.12999999999995" y="189.99999999999997" as="sourcePoint" />
            <mxPoint x="64.99999999999996" y="226.17999999999998" as="targetPoint" />
            <Array as="points">
              <mxPoint x="100" y="190" />
              <mxPoint x="100" y="220" />
            </Array>
          </mxGeometry>
        </mxCell>
        <mxCell id="7F6fqmXWAmK54oai2_qa-8" value="validar &lt;br&gt;identificador&lt;br&gt;de control&lt;br&gt;remoto" style="edgeLabel;html=1;align=center;verticalAlign=middle;resizable=0;points=[];" parent="7F6fqmXWAmK54oai2_qa-7" vertex="1" connectable="0">
          <mxGeometry x="-0.1339" y="-1" relative="1" as="geometry">
            <mxPoint x="34" y="9" as="offset" />
          </mxGeometry>
        </mxCell>
        <mxCell id="7F6fqmXWAmK54oai2_qa-9" value="" style="rounded=0;whiteSpace=wrap;html=1;" parent="7F6fqmXWAmK54oai2_qa-5" vertex="1">
          <mxGeometry x="60" y="220" width="10" height="40" as="geometry" />
        </mxCell>
        <mxCell id="7F6fqmXWAmK54oai2_qa-11" value="[identificador inválido]" style="text;html=1;strokeColor=none;fillColor=none;align=center;verticalAlign=middle;whiteSpace=wrap;rounded=0;fontStyle=1" parent="7F6fqmXWAmK54oai2_qa-5" vertex="1">
          <mxGeometry x="74.5" y="265" width="131" height="20" as="geometry" />
        </mxCell>
        <mxCell id="7F6fqmXWAmK54oai2_qa-12" value="[identificador válido]" style="text;html=1;strokeColor=none;fillColor=none;align=center;verticalAlign=middle;whiteSpace=wrap;rounded=0;fontStyle=1" parent="7F6fqmXWAmK54oai2_qa-5" vertex="1">
          <mxGeometry x="74.5" y="356" width="128.12" height="20" as="geometry" />
        </mxCell>
        <mxCell id="7F6fqmXWAmK54oai2_qa-13" value="" style="rounded=0;whiteSpace=wrap;html=1;" parent="7F6fqmXWAmK54oai2_qa-5" vertex="1">
          <mxGeometry x="60" y="300" width="10" height="40" as="geometry" />
        </mxCell>
        <mxCell id="7F6fqmXWAmK54oai2_qa-14" value="" style="endArrow=classic;html=1;rounded=0;exitX=1.019;exitY=0.627;exitDx=0;exitDy=0;edgeStyle=orthogonalEdgeStyle;curved=1;entryX=1.032;entryY=0.375;entryDx=0;entryDy=0;entryPerimeter=0;exitPerimeter=0;" parent="7F6fqmXWAmK54oai2_qa-5" source="7F6fqmXWAmK54oai2_qa-6" target="7F6fqmXWAmK54oai2_qa-13" edge="1">
          <mxGeometry width="50" height="50" relative="1" as="geometry">
            <mxPoint x="64.99999999999994" y="285" as="sourcePoint" />
            <mxPoint x="69.87" y="315" as="targetPoint" />
            <Array as="points">
              <mxPoint x="65" y="285" />
              <mxPoint x="100" y="285" />
              <mxPoint x="100" y="315" />
            </Array>
          </mxGeometry>
        </mxCell>
        <mxCell id="7F6fqmXWAmK54oai2_qa-15" value="rechazar &lt;br&gt;comando" style="edgeLabel;html=1;align=center;verticalAlign=middle;resizable=0;points=[];" parent="7F6fqmXWAmK54oai2_qa-14" vertex="1" connectable="0">
          <mxGeometry x="-0.1339" y="-1" relative="1" as="geometry">
            <mxPoint x="34" y="9" as="offset" />
          </mxGeometry>
        </mxCell>
        <mxCell id="7F6fqmXWAmK54oai2_qa-16" value="" style="rounded=0;whiteSpace=wrap;html=1;" parent="7F6fqmXWAmK54oai2_qa-5" vertex="1">
          <mxGeometry x="60" y="400" width="10" height="40" as="geometry" />
        </mxCell>
        <mxCell id="7F6fqmXWAmK54oai2_qa-17" value="" style="endArrow=classic;html=1;rounded=0;edgeStyle=orthogonalEdgeStyle;curved=1;" parent="7F6fqmXWAmK54oai2_qa-5" source="7F6fqmXWAmK54oai2_qa-71" edge="1">
          <mxGeometry width="50" height="50" relative="1" as="geometry">
            <mxPoint x="70" y="381" as="sourcePoint" />
            <mxPoint x="70" y="410" as="targetPoint" />
            <Array as="points">
              <mxPoint x="100" y="381" />
              <mxPoint x="100" y="410" />
            </Array>
          </mxGeometry>
        </mxCell>
        <mxCell id="7F6fqmXWAmK54oai2_qa-18" value="procesar comando" style="edgeLabel;html=1;align=center;verticalAlign=middle;resizable=0;points=[];" parent="7F6fqmXWAmK54oai2_qa-17" vertex="1" connectable="0">
          <mxGeometry x="-0.1339" y="-1" relative="1" as="geometry">
            <mxPoint x="57" y="11" as="offset" />
          </mxGeometry>
        </mxCell>
        <mxCell id="7F6fqmXWAmK54oai2_qa-19" value="Microcontroladores de displays" style="shape=umlLifeline;perimeter=lifelinePerimeter;whiteSpace=wrap;html=1;container=1;collapsible=0;recursiveResize=0;outlineConnect=0;rounded=1;shadow=0;comic=0;labelBackgroundColor=none;strokeWidth=1;fontFamily=Verdana;fontSize=12;align=center;size=40;" parent="1" vertex="1">
          <mxGeometry x="570" y="110" width="120" height="700" as="geometry" />
        </mxCell>
        <mxCell id="7F6fqmXWAmK54oai2_qa-20" value="LEDs / matrices LED / buzzer" style="shape=umlLifeline;perimeter=lifelinePerimeter;whiteSpace=wrap;html=1;container=1;collapsible=0;recursiveResize=0;outlineConnect=0;rounded=1;shadow=0;comic=0;labelBackgroundColor=none;strokeWidth=1;fontFamily=Verdana;fontSize=12;align=center;" parent="1" vertex="1">
          <mxGeometry x="740" y="110" width="130" height="700" as="geometry" />
        </mxCell>
        <mxCell id="7F6fqmXWAmK54oai2_qa-21" value="Usuario" style="shape=umlLifeline;perimeter=lifelinePerimeter;whiteSpace=wrap;html=1;container=1;collapsible=0;recursiveResize=0;outlineConnect=0;rounded=1;shadow=0;comic=0;labelBackgroundColor=none;strokeWidth=1;fontFamily=Verdana;fontSize=12;align=center;" parent="1" vertex="1">
          <mxGeometry x="70" y="110" width="120" height="700" as="geometry" />
        </mxCell>
        <mxCell id="7F6fqmXWAmK54oai2_qa-22" value="" style="rounded=0;whiteSpace=wrap;html=1;" parent="7F6fqmXWAmK54oai2_qa-21" vertex="1">
          <mxGeometry x="55" y="100" width="10" height="540" as="geometry" />
        </mxCell>
        <mxCell id="7F6fqmXWAmK54oai2_qa-23" value="" style="endArrow=classic;html=1;rounded=0;exitX=1.032;exitY=0.038;exitDx=0;exitDy=0;exitPerimeter=0;entryX=0;entryY=0;entryDx=0;entryDy=0;" parent="1" source="7F6fqmXWAmK54oai2_qa-22" target="7F6fqmXWAmK54oai2_qa-4" edge="1">
          <mxGeometry width="50" height="50" relative="1" as="geometry">
            <mxPoint x="300" y="230" as="sourcePoint" />
            <mxPoint x="350" y="180" as="targetPoint" />
          </mxGeometry>
        </mxCell>
        <mxCell id="7F6fqmXWAmK54oai2_qa-24" value="presionar botón &lt;br&gt;de incrementar &lt;br&gt;o disminuir puntaje" style="edgeLabel;html=1;align=center;verticalAlign=middle;resizable=0;points=[];" parent="7F6fqmXWAmK54oai2_qa-23" vertex="1" connectable="0">
          <mxGeometry x="-0.1339" y="-1" relative="1" as="geometry">
            <mxPoint x="6" y="-21" as="offset" />
          </mxGeometry>
        </mxCell>
        <mxCell id="7F6fqmXWAmK54oai2_qa-25" value="" style="endArrow=classic;html=1;rounded=0;exitX=1;exitY=1;exitDx=0;exitDy=0;entryX=0;entryY=0;entryDx=0;entryDy=0;" parent="1" source="7F6fqmXWAmK54oai2_qa-4" target="7F6fqmXWAmK54oai2_qa-6" edge="1">
          <mxGeometry width="50" height="50" relative="1" as="geometry">
            <mxPoint x="320" y="290" as="sourcePoint" />
            <mxPoint x="450" y="290" as="targetPoint" />
          </mxGeometry>
        </mxCell>
        <mxCell id="7F6fqmXWAmK54oai2_qa-26" value="enviar comando para&lt;br&gt;modificar puntaje" style="edgeLabel;html=1;align=center;verticalAlign=middle;resizable=0;points=[];" parent="7F6fqmXWAmK54oai2_qa-25" vertex="1" connectable="0">
          <mxGeometry x="-0.1339" y="-1" relative="1" as="geometry">
            <mxPoint x="6" y="-21" as="offset" />
          </mxGeometry>
        </mxCell>
        <mxCell id="7F6fqmXWAmK54oai2_qa-27" value="alt" style="shape=umlFrame;whiteSpace=wrap;html=1;pointerEvents=0;width=40;height=20;" parent="1" vertex="1">
          <mxGeometry x="70" y="375" width="820" height="405" as="geometry" />
        </mxCell>
        <mxCell id="7F6fqmXWAmK54oai2_qa-28" style="edgeStyle=orthogonalEdgeStyle;rounded=0;orthogonalLoop=1;jettySize=auto;html=1;exitX=1;exitY=1;exitDx=0;exitDy=0;entryX=0;entryY=0;entryDx=0;entryDy=0;" parent="1" source="7F6fqmXWAmK54oai2_qa-30" target="7F6fqmXWAmK54oai2_qa-38" edge="1">
          <mxGeometry relative="1" as="geometry">
            <Array as="points">
              <mxPoint x="680" y="690" />
              <mxPoint x="680" y="690" />
            </Array>
          </mxGeometry>
        </mxCell>
        <mxCell id="7F6fqmXWAmK54oai2_qa-29" value="señales electrónicas &lt;br&gt;y SPI" style="edgeLabel;html=1;align=center;verticalAlign=middle;resizable=0;points=[];" parent="7F6fqmXWAmK54oai2_qa-28" vertex="1" connectable="0">
          <mxGeometry x="-0.1849" y="-2" relative="1" as="geometry">
            <mxPoint x="11" y="-18" as="offset" />
          </mxGeometry>
        </mxCell>
        <mxCell id="7F6fqmXWAmK54oai2_qa-30" value="" style="rounded=0;whiteSpace=wrap;html=1;" parent="1" vertex="1">
          <mxGeometry x="625" y="590" width="10" height="100" as="geometry" />
        </mxCell>
        <mxCell id="7F6fqmXWAmK54oai2_qa-31" style="edgeStyle=orthogonalEdgeStyle;rounded=0;orthogonalLoop=1;jettySize=auto;html=1;exitX=1;exitY=1;exitDx=0;exitDy=0;entryX=0;entryY=0;entryDx=0;entryDy=0;" parent="1" source="7F6fqmXWAmK54oai2_qa-6" target="7F6fqmXWAmK54oai2_qa-30" edge="1">
          <mxGeometry relative="1" as="geometry">
            <Array as="points">
              <mxPoint x="510" y="590" />
              <mxPoint x="510" y="590" />
            </Array>
          </mxGeometry>
        </mxCell>
        <mxCell id="7F6fqmXWAmK54oai2_qa-32" value="enviar datos &lt;br&gt;actualizados" style="edgeLabel;html=1;align=center;verticalAlign=middle;resizable=0;points=[];" parent="7F6fqmXWAmK54oai2_qa-31" vertex="1" connectable="0">
          <mxGeometry x="-0.0984" relative="1" as="geometry">
            <mxPoint x="74" y="-20" as="offset" />
          </mxGeometry>
        </mxCell>
        <mxCell id="7F6fqmXWAmK54oai2_qa-33" value="" style="rounded=0;whiteSpace=wrap;html=1;" parent="1" vertex="1">
          <mxGeometry x="630" y="620" width="10" height="40" as="geometry" />
        </mxCell>
        <mxCell id="7F6fqmXWAmK54oai2_qa-34" value="" style="endArrow=classic;html=1;rounded=0;edgeStyle=orthogonalEdgeStyle;curved=1;entryX=1;entryY=0.25;entryDx=0;entryDy=0;" parent="1" target="7F6fqmXWAmK54oai2_qa-33" edge="1">
          <mxGeometry width="50" height="50" relative="1" as="geometry">
            <mxPoint x="635" y="600" as="sourcePoint" />
            <mxPoint x="660" y="619" as="targetPoint" />
            <Array as="points">
              <mxPoint x="690" y="599" />
              <mxPoint x="690" y="630" />
            </Array>
          </mxGeometry>
        </mxCell>
        <mxCell id="7F6fqmXWAmK54oai2_qa-35" value="extraer datos y &lt;br&gt;actualizar display&lt;br&gt;de puntaje" style="edgeLabel;html=1;align=center;verticalAlign=middle;resizable=0;points=[];" parent="7F6fqmXWAmK54oai2_qa-34" vertex="1" connectable="0">
          <mxGeometry x="-0.1339" y="-1" relative="1" as="geometry">
            <mxPoint x="51" y="11" as="offset" />
          </mxGeometry>
        </mxCell>
        <mxCell id="7F6fqmXWAmK54oai2_qa-36" style="edgeStyle=orthogonalEdgeStyle;rounded=0;orthogonalLoop=1;jettySize=auto;html=1;exitX=0;exitY=1;exitDx=0;exitDy=0;entryX=1.028;entryY=0.963;entryDx=0;entryDy=0;entryPerimeter=0;dashed=1;dashPattern=8 8;" parent="1" source="7F6fqmXWAmK54oai2_qa-38" target="7F6fqmXWAmK54oai2_qa-22" edge="1">
          <mxGeometry relative="1" as="geometry">
            <Array as="points">
              <mxPoint x="620" y="730" />
              <mxPoint x="620" y="730" />
            </Array>
          </mxGeometry>
        </mxCell>
        <mxCell id="7F6fqmXWAmK54oai2_qa-37" value="mostrar datos y emitir &lt;br&gt;alertas sonoras" style="edgeLabel;html=1;align=center;verticalAlign=middle;resizable=0;points=[];" parent="7F6fqmXWAmK54oai2_qa-36" vertex="1" connectable="0">
          <mxGeometry x="-0.2968" relative="1" as="geometry">
            <mxPoint x="-26" y="17" as="offset" />
          </mxGeometry>
        </mxCell>
        <mxCell id="7F6fqmXWAmK54oai2_qa-38" value="" style="rounded=0;whiteSpace=wrap;html=1;" parent="1" vertex="1">
          <mxGeometry x="800" y="690" width="10" height="40" as="geometry" />
        </mxCell>
        <mxCell id="7F6fqmXWAmK54oai2_qa-39" value="Máquina de puntaje" style="swimlane;whiteSpace=wrap;html=1;" parent="1" vertex="1">
          <mxGeometry x="1355" y="120" width="595" height="490" as="geometry" />
        </mxCell>
        <mxCell id="bIC6PZaSWGzknsKboqKd-15" value="" style="edgeStyle=orthogonalEdgeStyle;rounded=0;orthogonalLoop=1;jettySize=auto;html=1;" parent="7F6fqmXWAmK54oai2_qa-39" source="7F6fqmXWAmK54oai2_qa-48" target="7F6fqmXWAmK54oai2_qa-60" edge="1">
          <mxGeometry relative="1" as="geometry" />
        </mxCell>
        <mxCell id="7F6fqmXWAmK54oai2_qa-48" value="Identificador&lt;br&gt;de control remoto es válido?" style="rhombus;whiteSpace=wrap;html=1;" parent="7F6fqmXWAmK54oai2_qa-39" vertex="1">
          <mxGeometry x="200" y="175" width="110" height="110" as="geometry" />
        </mxCell>
        <mxCell id="7F6fqmXWAmK54oai2_qa-53" value="" style="edgeStyle=orthogonalEdgeStyle;rounded=0;orthogonalLoop=1;jettySize=auto;html=1;" parent="7F6fqmXWAmK54oai2_qa-39" source="7F6fqmXWAmK54oai2_qa-51" target="7F6fqmXWAmK54oai2_qa-48" edge="1">
          <mxGeometry relative="1" as="geometry" />
        </mxCell>
        <mxCell id="7F6fqmXWAmK54oai2_qa-51" value="Recibir Comando" style="rounded=1;whiteSpace=wrap;html=1;" parent="7F6fqmXWAmK54oai2_qa-39" vertex="1">
          <mxGeometry x="45" y="200" width="120" height="60" as="geometry" />
        </mxCell>
        <mxCell id="bIC6PZaSWGzknsKboqKd-16" style="edgeStyle=orthogonalEdgeStyle;rounded=0;orthogonalLoop=1;jettySize=auto;html=1;entryX=0.5;entryY=0;entryDx=0;entryDy=0;" parent="7F6fqmXWAmK54oai2_qa-39" source="7F6fqmXWAmK54oai2_qa-60" target="18j1XGoCvIrTiXG_NGVG-71" edge="1">
          <mxGeometry relative="1" as="geometry" />
        </mxCell>
        <mxCell id="7F6fqmXWAmK54oai2_qa-60" value="Incrementar&lt;br&gt;puntaje" style="rounded=1;whiteSpace=wrap;html=1;" parent="7F6fqmXWAmK54oai2_qa-39" vertex="1">
          <mxGeometry x="345" y="200" width="120" height="60" as="geometry" />
        </mxCell>
        <mxCell id="bIC6PZaSWGzknsKboqKd-14" value="" style="edgeStyle=orthogonalEdgeStyle;rounded=0;orthogonalLoop=1;jettySize=auto;html=1;" parent="7F6fqmXWAmK54oai2_qa-39" source="bIC6PZaSWGzknsKboqKd-10" target="bIC6PZaSWGzknsKboqKd-13" edge="1">
          <mxGeometry relative="1" as="geometry" />
        </mxCell>
        <mxCell id="bIC6PZaSWGzknsKboqKd-10" value="Identificador&lt;br&gt;de control remoto es válido?" style="rhombus;whiteSpace=wrap;html=1;" parent="7F6fqmXWAmK54oai2_qa-39" vertex="1">
          <mxGeometry x="200" y="355" width="110" height="110" as="geometry" />
        </mxCell>
        <mxCell id="bIC6PZaSWGzknsKboqKd-11" value="" style="edgeStyle=orthogonalEdgeStyle;rounded=0;orthogonalLoop=1;jettySize=auto;html=1;" parent="7F6fqmXWAmK54oai2_qa-39" source="bIC6PZaSWGzknsKboqKd-12" target="bIC6PZaSWGzknsKboqKd-10" edge="1">
          <mxGeometry relative="1" as="geometry" />
        </mxCell>
        <mxCell id="bIC6PZaSWGzknsKboqKd-12" value="Recibir Comando" style="rounded=1;whiteSpace=wrap;html=1;" parent="7F6fqmXWAmK54oai2_qa-39" vertex="1">
          <mxGeometry x="45" y="380" width="120" height="60" as="geometry" />
        </mxCell>
        <mxCell id="bIC6PZaSWGzknsKboqKd-17" style="edgeStyle=orthogonalEdgeStyle;rounded=0;orthogonalLoop=1;jettySize=auto;html=1;entryX=0.5;entryY=1;entryDx=0;entryDy=0;" parent="7F6fqmXWAmK54oai2_qa-39" source="bIC6PZaSWGzknsKboqKd-13" target="18j1XGoCvIrTiXG_NGVG-71" edge="1">
          <mxGeometry relative="1" as="geometry" />
        </mxCell>
        <mxCell id="bIC6PZaSWGzknsKboqKd-13" value="disminuir&lt;br style=&quot;border-color: var(--border-color);&quot;&gt;puntaje" style="rounded=1;whiteSpace=wrap;html=1;" parent="7F6fqmXWAmK54oai2_qa-39" vertex="1">
          <mxGeometry x="345" y="380" width="120" height="60" as="geometry" />
        </mxCell>
        <mxCell id="18j1XGoCvIrTiXG_NGVG-73" value="" style="group" parent="7F6fqmXWAmK54oai2_qa-39" vertex="1" connectable="0">
          <mxGeometry x="515" y="300" width="40" height="40" as="geometry" />
        </mxCell>
        <mxCell id="18j1XGoCvIrTiXG_NGVG-71" value="" style="ellipse;whiteSpace=wrap;html=1;aspect=fixed;" parent="18j1XGoCvIrTiXG_NGVG-73" vertex="1">
          <mxGeometry width="40" height="40" as="geometry" />
        </mxCell>
        <mxCell id="18j1XGoCvIrTiXG_NGVG-72" value="" style="ellipse;whiteSpace=wrap;html=1;aspect=fixed;fillColor=#000000;" parent="18j1XGoCvIrTiXG_NGVG-73" vertex="1">
          <mxGeometry x="10" y="10" width="20" height="20" as="geometry" />
        </mxCell>
        <mxCell id="7F6fqmXWAmK54oai2_qa-10" value="" style="endArrow=none;dashed=1;html=1;strokeWidth=2;rounded=0;exitX=-0.001;exitY=0.226;exitDx=0;exitDy=0;exitPerimeter=0;entryX=1;entryY=0.223;entryDx=0;entryDy=0;entryPerimeter=0;" parent="1" source="7F6fqmXWAmK54oai2_qa-27" target="7F6fqmXWAmK54oai2_qa-27" edge="1">
          <mxGeometry width="50" height="50" relative="1" as="geometry">
            <mxPoint x="410.23" y="461.16999999999985" as="sourcePoint" />
            <mxPoint x="900" y="462" as="targetPoint" />
          </mxGeometry>
        </mxCell>
        <mxCell id="bIC6PZaSWGzknsKboqKd-4" value="" style="edgeStyle=orthogonalEdgeStyle;rounded=0;orthogonalLoop=1;jettySize=auto;html=1;" parent="1" source="bIC6PZaSWGzknsKboqKd-1" target="bIC6PZaSWGzknsKboqKd-3" edge="1">
          <mxGeometry relative="1" as="geometry" />
        </mxCell>
        <mxCell id="bIC6PZaSWGzknsKboqKd-5" style="edgeStyle=orthogonalEdgeStyle;rounded=0;orthogonalLoop=1;jettySize=auto;html=1;" parent="1" source="bIC6PZaSWGzknsKboqKd-1" target="ePJA7sKkPswgZLmJT1RE-2" edge="1">
          <mxGeometry relative="1" as="geometry">
            <Array as="points">
              <mxPoint x="1058" y="440" />
            </Array>
          </mxGeometry>
        </mxCell>
        <mxCell id="bIC6PZaSWGzknsKboqKd-9" value="" style="edgeStyle=orthogonalEdgeStyle;rounded=0;orthogonalLoop=1;jettySize=auto;html=1;" parent="1" source="bIC6PZaSWGzknsKboqKd-6" target="7F6fqmXWAmK54oai2_qa-51" edge="1">
          <mxGeometry relative="1" as="geometry" />
        </mxCell>
        <mxCell id="bIC6PZaSWGzknsKboqKd-18" value="" style="edgeStyle=orthogonalEdgeStyle;rounded=0;orthogonalLoop=1;jettySize=auto;html=1;" parent="1" source="7F6fqmXWAmK54oai2_qa-50" target="bIC6PZaSWGzknsKboqKd-12" edge="1">
          <mxGeometry relative="1" as="geometry" />
        </mxCell>
      </root>
    </mxGraphModel>
  </diagram>
</mxfile>
